<mxfile host="Electron" modified="2023-06-01T00:58:21.507Z" agent="Mozilla/5.0 (Windows NT 10.0; Win64; x64) AppleWebKit/537.36 (KHTML, like Gecko) draw.io/21.2.8 Chrome/112.0.5615.165 Electron/24.2.0 Safari/537.36" etag="MJn7km084bKMnkSHwNQm" version="21.2.8" type="device">
  <diagram name="Página-1" id="XyDnjhL747RDHOwX5k3u">
    <mxGraphModel dx="1613" dy="840" grid="1" gridSize="10" guides="1" tooltips="1" connect="1" arrows="1" fold="1" page="1" pageScale="1" pageWidth="1169" pageHeight="827" math="0" shadow="0">
      <root>
        <mxCell id="0" />
        <mxCell id="1" parent="0" />
        <mxCell id="Zlu2G0IofbOdNDZjF1Yi-6" value="&lt;p style=&quot;margin:0px;margin-top:4px;text-align:center;&quot;&gt;&lt;/p&gt;&lt;p class=&quot;Corpodetexto&quot;&gt;&lt;strong&gt;AgendamentoController&lt;br&gt;&lt;/strong&gt;&lt;/p&gt;&lt;hr size=&quot;1&quot;&gt;&lt;p style=&quot;margin:0px;margin-left:4px;&quot;&gt;+ Index&lt;/p&gt;" style="verticalAlign=top;align=left;overflow=fill;fontSize=12;fontFamily=Helvetica;html=1;whiteSpace=wrap;" vertex="1" parent="1">
          <mxGeometry x="100" y="200" width="220" height="90" as="geometry" />
        </mxCell>
        <mxCell id="Zlu2G0IofbOdNDZjF1Yi-7" value="&lt;p style=&quot;margin:0px;margin-top:4px;text-align:center;&quot;&gt;&lt;/p&gt;&lt;p class=&quot;Corpodetexto&quot;&gt;&lt;strong&gt;AgendamentoController&lt;/strong&gt;&lt;/p&gt;&lt;hr size=&quot;1&quot;&gt;&lt;p style=&quot;margin:0px;margin-left:4px;&quot;&gt;+ Edit&lt;/p&gt;" style="verticalAlign=top;align=left;overflow=fill;fontSize=12;fontFamily=Helvetica;html=1;whiteSpace=wrap;" vertex="1" parent="1">
          <mxGeometry x="100" y="413" width="220" height="90" as="geometry" />
        </mxCell>
        <mxCell id="Zlu2G0IofbOdNDZjF1Yi-8" value="&lt;p style=&quot;margin:0px;margin-top:4px;text-align:center;&quot;&gt;&lt;/p&gt;&lt;p class=&quot;Corpodetexto&quot;&gt;&lt;strong&gt;ConfirmacaoAgendamentoController&lt;/strong&gt;&lt;/p&gt;&lt;hr size=&quot;1&quot;&gt;&lt;p style=&quot;margin:0px;margin-left:4px;&quot;&gt;+ Index&lt;/p&gt;" style="verticalAlign=top;align=left;overflow=fill;fontSize=12;fontFamily=Helvetica;html=1;whiteSpace=wrap;" vertex="1" parent="1">
          <mxGeometry x="480" y="413" width="220" height="90" as="geometry" />
        </mxCell>
        <mxCell id="Zlu2G0IofbOdNDZjF1Yi-9" value="&lt;p style=&quot;margin:0px;margin-top:4px;text-align:center;&quot;&gt;&lt;/p&gt;&lt;p class=&quot;Corpodetexto&quot;&gt;&lt;strong&gt;ConfirmacaoAgendamentoController&lt;/strong&gt;&lt;/p&gt;&lt;hr size=&quot;1&quot;&gt;&lt;p style=&quot;margin:0px;margin-left:4px;&quot;&gt;+ Edit&lt;/p&gt;" style="verticalAlign=top;align=left;overflow=fill;fontSize=12;fontFamily=Helvetica;html=1;whiteSpace=wrap;" vertex="1" parent="1">
          <mxGeometry x="710" y="190" width="220" height="90" as="geometry" />
        </mxCell>
        <mxCell id="Zlu2G0IofbOdNDZjF1Yi-12" value="«WEB»&lt;br&gt;&lt;b&gt;Paciente&lt;/b&gt;" style="html=1;whiteSpace=wrap;" vertex="1" parent="1">
          <mxGeometry x="320" y="40" width="145" height="60" as="geometry" />
        </mxCell>
        <mxCell id="Zlu2G0IofbOdNDZjF1Yi-14" value="return" style="html=1;verticalAlign=bottom;endArrow=open;dashed=1;endSize=8;edgeStyle=elbowEdgeStyle;elbow=vertical;curved=0;rounded=0;exitX=0.5;exitY=1;exitDx=0;exitDy=0;entryX=0.5;entryY=0;entryDx=0;entryDy=0;" edge="1" parent="1" source="Zlu2G0IofbOdNDZjF1Yi-6" target="Zlu2G0IofbOdNDZjF1Yi-7">
          <mxGeometry relative="1" as="geometry">
            <mxPoint x="640" y="400" as="sourcePoint" />
            <mxPoint x="560" y="400" as="targetPoint" />
          </mxGeometry>
        </mxCell>
        <mxCell id="Zlu2G0IofbOdNDZjF1Yi-15" value="return" style="html=1;verticalAlign=bottom;endArrow=open;dashed=1;endSize=8;edgeStyle=elbowEdgeStyle;elbow=vertical;curved=0;rounded=0;exitX=1;exitY=0.5;exitDx=0;exitDy=0;entryX=0;entryY=0.5;entryDx=0;entryDy=0;" edge="1" parent="1" source="Zlu2G0IofbOdNDZjF1Yi-7" target="Zlu2G0IofbOdNDZjF1Yi-8">
          <mxGeometry relative="1" as="geometry">
            <mxPoint x="220" y="300" as="sourcePoint" />
            <mxPoint x="220" y="423" as="targetPoint" />
          </mxGeometry>
        </mxCell>
        <mxCell id="Zlu2G0IofbOdNDZjF1Yi-16" value="return" style="html=1;verticalAlign=bottom;endArrow=open;dashed=1;endSize=8;edgeStyle=elbowEdgeStyle;elbow=vertical;curved=0;rounded=0;exitX=0.5;exitY=0;exitDx=0;exitDy=0;" edge="1" parent="1" source="Zlu2G0IofbOdNDZjF1Yi-8" target="Zlu2G0IofbOdNDZjF1Yi-12">
          <mxGeometry relative="1" as="geometry">
            <mxPoint x="330" y="468" as="sourcePoint" />
            <mxPoint x="490" y="468" as="targetPoint" />
          </mxGeometry>
        </mxCell>
        <mxCell id="Zlu2G0IofbOdNDZjF1Yi-17" value="return" style="html=1;verticalAlign=bottom;endArrow=open;dashed=1;endSize=8;edgeStyle=elbowEdgeStyle;elbow=vertical;curved=0;rounded=0;exitX=1;exitY=0.5;exitDx=0;exitDy=0;entryX=0.5;entryY=0;entryDx=0;entryDy=0;" edge="1" parent="1" source="Zlu2G0IofbOdNDZjF1Yi-12" target="Zlu2G0IofbOdNDZjF1Yi-9">
          <mxGeometry relative="1" as="geometry">
            <mxPoint x="220" y="300" as="sourcePoint" />
            <mxPoint x="220" y="423" as="targetPoint" />
          </mxGeometry>
        </mxCell>
      </root>
    </mxGraphModel>
  </diagram>
</mxfile>
